<?xml version="1.0" encoding="utf-8" standalone="no"?>
<!DOCTYPE svg PUBLIC "-//W3C//DTD SVG 1.1//EN"
  "http://www.w3.org/Graphics/SVG/1.1/DTD/svg11.dtd">
<!-- Created with matplotlib (https://matplotlib.org/) -->
<svg height="216pt" version="1.1" viewBox="0 0 216 216" width="216pt" xmlns="http://www.w3.org/2000/svg" xmlns:xlink="http://www.w3.org/1999/xlink">
 <defs>
  <style type="text/css">
*{stroke-linecap:butt;stroke-linejoin:round;}
  </style>
 </defs>
 <g id="figure_1">
  <g id="patch_1">
   <path d="M 0 216 
L 216 216 
L 216 0 
L 0 0 
z
" style="fill:none;"/>
  </g>
  <g id="axes_1">
   <g id="patch_2">
    <path d="M 0 216 
L 216 216 
L 216 0 
L 0 0 
z
" style="fill:none;"/>
   </g>
   <g id="PolyCollection_1">
    <path clip-path="url(#p7dc5678ce0)" d="M -36 64.370662 
L -36 161.205368 
L -33.090909 149.439078 
L -30.181818 142.414912 
L -27.272727 141.616457 
L -24.363636 146.942191 
L -21.454545 156.782587 
L -18.545455 169.487541 
L -15.636364 183.91898 
L -12.727273 199.314821 
L -9.818182 215.114255 
L -6.909091 230.862411 
L -4 246.166725 
L -1.090909 260.678569 
L 1.818182 274.086547 
L 4.727273 286.115065 
L 7.636364 296.525126 
L 10.545455 305.115911 
L 13.454545 311.72642 
L 16.363636 316.236866 
L 19.272727 318.569686 
L 22.181818 318.690175 
L 25.090909 316.606813 
L 28 312.371437 
L 30.909091 306.079537 
L 33.818182 297.871168 
L 36.727273 287.933403 
L 39.636364 276.506121 
L 42.545455 263.894625 
L 45.454545 250.496084 
L 48.363636 236.852542 
L 51.272727 223.745866 
L 54.181818 212.30551 
L 57.090909 203.876614 
L 60 199.207526 
L 62.909091 197.659236 
L 65.818182 197.820126 
L 68.727273 198.469134 
L 71.636364 198.806596 
L 74.545455 198.338914 
L 77.454545 196.761138 
L 80.363636 193.890805 
L 83.272727 189.635437 
L 86.181818 183.977187 
L 89.090909 176.965758 
L 92 168.715573 
L 94.909091 159.405959 
L 97.818182 149.285154 
L 100.727273 138.681205 
L 103.636364 128.026098 
L 106.545455 117.903091 
L 109.454545 109.121758 
L 112.363636 102.766063 
L 115.272727 99.98139 
L 118.181818 101.288338 
L 121.090909 106.114378 
L 124 113.301904 
L 126.909091 121.777293 
L 129.818182 130.74257 
L 132.727273 139.622264 
L 135.636364 147.989149 
L 138.545455 155.517936 
L 141.454545 161.961448 
L 144.363636 167.139447 
L 147.272727 170.933959 
L 150.181818 173.28819 
L 153.090909 174.208364 
L 156 173.769884 
L 158.909091 172.132078 
L 161.818182 169.570807 
L 164.727273 166.54593 
L 167.636364 163.820473 
L 170.545455 162.569982 
L 173.454545 164.11923 
L 176.363636 168.955097 
L 179.272727 176.178721 
L 182.181818 184.342463 
L 185.090909 192.230899 
L 188 198.972231 
L 190.909091 203.931955 
L 193.818182 206.624537 
L 196.727273 206.66699 
L 199.636364 203.758497 
L 202.545455 197.673468 
L 205.454545 188.261047 
L 208.363636 175.447408 
L 211.272727 159.238862 
L 214.181818 139.724595 
L 217.090909 117.078308 
L 220 91.558269 
L 222.909091 63.505449 
L 225.818182 33.339574 
L 228.727273 1.553066 
L 231.636364 -31.29694 
L 234.545455 -64.598015 
L 237.454545 -97.692317 
L 240.363636 -129.885096 
L 243.272727 -160.44828 
L 246.181818 -188.612054 
L 249.090909 -213.52983 
L 252 -234.189027 
L 252 -330.666651 
L 252 -330.666651 
L 249.090909 -328.764657 
L 246.181818 -323.784594 
L 243.272727 -315.507231 
L 240.363636 -304.01007 
L 237.454545 -289.546405 
L 234.545455 -272.475862 
L 231.636364 -253.22037 
L 228.727273 -232.232582 
L 225.818182 -209.971125 
L 222.909091 -186.880502 
L 220 -163.374903 
L 217.090909 -139.825824 
L 214.181818 -116.553526 
L 211.272727 -93.822403 
L 208.363636 -71.840185 
L 205.454545 -50.760813 
L 202.545455 -30.690687 
L 199.636364 -11.698005 
L 196.727273 6.175047 
L 193.818182 22.897083 
L 190.909091 38.428355 
L 188 52.694996 
L 185.090909 65.550635 
L 182.181818 76.713552 
L 179.272727 85.664194 
L 176.363636 91.527394 
L 173.454545 93.175316 
L 170.545455 90.00303 
L 167.636364 82.762992 
L 164.727273 73.017348 
L 161.818182 62.15316 
L 158.909091 51.123125 
L 156 40.559981 
L 153.090909 30.901149 
L 150.181818 22.461471 
L 147.272727 15.470353 
L 144.363636 10.089856 
L 141.454545 6.422697 
L 138.545455 4.514249 
L 135.636364 4.349927 
L 132.727273 5.847437 
L 129.818182 8.841235 
L 126.909091 13.053463 
L 124 18.041947 
L 121.090909 23.120325 
L 118.181818 27.299843 
L 115.272727 29.476968 
L 112.363636 29.099752 
L 109.454545 26.674819 
L 106.545455 23.299663 
L 103.636364 19.978814 
L 100.727273 17.414756 
L 97.818182 16.06116 
L 94.909091 16.203948 
L 92 18.015075 
L 89.090909 21.583048 
L 86.181818 26.929711 
L 83.272727 34.019208 
L 80.363636 42.761862 
L 77.454545 53.013581 
L 74.545455 64.569433 
L 71.636364 77.14742 
L 68.727273 90.353735 
L 65.818182 103.613254 
L 62.909091 116.048054 
L 60 126.357691 
L 57.090909 133.045799 
L 54.181818 135.3796 
L 51.272727 134.001983 
L 48.363636 130.139595 
L 45.454545 124.79059 
L 42.545455 118.594659 
L 39.636364 111.944444 
L 36.727273 105.085738 
L 33.818182 98.177153 
L 30.909091 91.324264 
L 28 84.600608 
L 25.090909 78.062027 
L 22.181818 71.757361 
L 19.272727 65.736788 
L 16.363636 60.058223 
L 13.454545 54.791853 
L 10.545455 50.022723 
L 7.636364 45.851257 
L 4.727273 42.39164 
L 1.818182 39.768049 
L -1.090909 38.108707 
L -4 37.537671 
L -6.909091 38.164037 
L -9.818182 40.067527 
L -12.727273 43.278004 
L -15.636364 47.743101 
L -18.545455 53.271 
L -21.454545 59.422538 
L -24.363636 65.325534 
L -27.272727 69.529892 
L -30.181818 70.553842 
L -33.090909 68.34778 
L -36 64.370662 
z
" style="fill:#4063d8;fill-opacity:0.2;"/>
   </g>
   <g id="line2d_1">
    <path clip-path="url(#p7dc5678ce0)" d="M -1 149.629065 
L 1.818182 156.927298 
L 4.727273 164.253352 
L 7.636364 171.188191 
L 10.545455 177.569317 
L 13.454545 183.259136 
L 16.363636 188.147544 
L 19.272727 192.153237 
L 22.181818 195.223768 
L 25.090909 197.33442 
L 28 198.486023 
L 30.909091 198.701901 
L 33.818182 198.02416 
L 36.727273 196.509571 
L 39.636364 194.225282 
L 42.545455 191.244642 
L 45.454545 187.643337 
L 48.363636 183.496068 
L 51.272727 178.873925 
L 54.181818 173.842555 
L 57.090909 168.461207 
L 60 162.782608 
L 62.909091 156.853645 
L 65.818182 150.71669 
L 68.727273 144.411434 
L 71.636364 137.977008 
L 74.545455 131.454174 
L 77.454545 124.88736 
L 80.363636 118.326334 
L 83.272727 111.827323 
L 86.181818 105.453449 
L 89.090909 99.274403 
L 92 93.365324 
L 94.909091 87.804954 
L 97.818182 82.673157 
L 100.727273 78.04798 
L 103.636364 74.002456 
L 106.545455 70.601377 
L 109.454545 67.898288 
L 112.363636 65.932908 
L 115.272727 64.729179 
L 118.181818 64.294091 
L 121.090909 64.617351 
L 124 65.671925 
L 126.909091 67.415378 
L 129.818182 69.791903 
L 132.727273 72.73485 
L 135.636364 76.169538 
L 138.545455 80.016093 
L 141.454545 84.192073 
L 144.363636 88.614651 
L 147.272727 93.202156 
L 150.181818 97.874831 
L 153.090909 102.554757 
L 156 107.164933 
L 158.909091 111.627601 
L 161.818182 115.861983 
L 164.727273 119.781639 
L 167.636364 123.291733 
L 170.545455 126.286506 
L 173.454545 128.647273 
L 176.363636 130.241246 
L 179.272727 130.921458 
L 182.181818 130.528007 
L 185.090909 128.890767 
L 188 125.833614 
L 190.909091 121.180155 
L 193.818182 114.76081 
L 196.727273 106.421019 
L 199.636364 96.030246 
L 202.545455 83.491391 
L 205.454545 68.750117 
L 208.363636 51.803611 
L 211.272727 32.708229 
L 214.181818 11.585534 
L 215.776487 -1 
" style="fill:none;stroke:#4063d8;stroke-width:6;"/>
   </g>
   <g id="matplotlib.axis_1">
    <g id="xtick_1"/>
    <g id="xtick_2"/>
    <g id="xtick_3"/>
    <g id="xtick_4"/>
    <g id="xtick_5"/>
    <g id="xtick_6"/>
    <g id="xtick_7"/>
   </g>
   <g id="matplotlib.axis_2">
    <g id="ytick_1"/>
    <g id="ytick_2"/>
    <g id="ytick_3"/>
    <g id="ytick_4"/>
    <g id="ytick_5"/>
    <g id="ytick_6"/>
    <g id="ytick_7"/>
    <g id="ytick_8"/>
   </g>
   <g id="PolyCollection_2">
    <path clip-path="url(#p7dc5678ce0)" d="M -36 80.509779 
L -36 145.06625 
L -33.090909 135.923862 
L -30.181818 130.438067 
L -27.272727 129.602029 
L -24.363636 133.339415 
L -21.454545 140.555912 
L -18.545455 150.118118 
L -15.636364 161.223 
L -12.727273 173.308685 
L -9.818182 185.9398 
L -6.909091 198.746015 
L -4 211.395216 
L -1.090909 223.583592 
L 1.818182 235.033464 
L 4.727273 245.494494 
L 7.636364 254.746148 
L 10.545455 262.600379 
L 13.454545 268.903992 
L 16.363636 273.540426 
L 19.272727 276.43087 
L 22.181818 277.534706 
L 25.090909 276.849348 
L 28 274.409632 
L 30.909091 270.286992 
L 33.818182 264.588832 
L 36.727273 257.458792 
L 39.636364 249.079175 
L 42.545455 239.677964 
L 45.454545 229.545168 
L 48.363636 219.067051 
L 51.272727 208.788552 
L 54.181818 199.484525 
L 57.090909 192.071478 
L 60 187.065887 
L 62.909091 184.057373 
L 65.818182 182.118981 
L 68.727273 180.449901 
L 71.636364 178.530067 
L 74.545455 176.044001 
L 77.454545 172.803212 
L 80.363636 168.702648 
L 83.272727 163.699399 
L 86.181818 157.802608 
L 89.090909 151.06864 
L 92 143.598823 
L 94.909091 135.538957 
L 97.818182 127.081155 
L 100.727273 118.47013 
L 103.636364 110.018217 
L 106.545455 102.135853 
L 109.454545 95.380601 
L 112.363636 90.488345 
L 115.272727 88.230653 
L 118.181818 88.956923 
L 121.090909 92.282036 
L 124 97.425244 
L 126.909091 103.656654 
L 129.818182 110.425681 
L 132.727273 117.326459 
L 135.636364 124.049279 
L 138.545455 130.350655 
L 141.454545 136.038323 
L 144.363636 140.964515 
L 147.272727 145.023358 
L 150.181818 148.150403 
L 153.090909 150.323828 
L 156 151.568234 
L 158.909091 151.963919 
L 161.818182 151.667866 
L 164.727273 150.957833 
L 167.636364 150.310893 
L 170.545455 150.47549 
L 173.454545 152.295245 
L 176.363636 156.05048 
L 179.272727 161.092967 
L 182.181818 166.404311 
L 185.090909 171.117522 
L 188 174.592692 
L 190.909091 176.348021 
L 193.818182 176.003295 
L 196.727273 173.251666 
L 199.636364 167.84908 
L 202.545455 159.612776 
L 205.454545 148.42407 
L 208.363636 134.232809 
L 211.272727 117.061984 
L 214.181818 97.011575 
L 217.090909 74.260953 
L 220 49.069407 
L 222.909091 21.774457 
L 225.818182 -7.212209 
L 228.727273 -37.411209 
L 231.636364 -68.284178 
L 234.545455 -99.244323 
L 237.454545 -129.667999 
L 240.363636 -158.905925 
L 243.272727 -186.291439 
L 246.181818 -211.14081 
L 249.090909 -232.735635 
L 252 -250.268631 
L 252 -314.587047 
L 252 -314.587047 
L 249.090909 -309.558853 
L 246.181818 -301.255837 
L 243.272727 -289.664072 
L 240.363636 -274.989241 
L 237.454545 -257.570724 
L 234.545455 -237.829554 
L 231.636364 -216.233132 
L 228.727273 -193.268307 
L 225.818182 -169.419342 
L 222.909091 -145.14951 
L 220 -120.886041 
L 217.090909 -97.008468 
L 214.181818 -73.840506 
L 211.272727 -51.645525 
L 208.363636 -30.625586 
L 205.454545 -10.923836 
L 202.545455 7.370005 
L 199.636364 24.211412 
L 196.727273 39.590371 
L 193.818182 53.518326 
L 190.909091 66.012288 
L 188 77.074535 
L 185.090909 86.664012 
L 182.181818 94.651704 
L 179.272727 100.749948 
L 176.363636 104.432011 
L 173.454545 104.999302 
L 170.545455 102.097522 
L 167.636364 96.272572 
L 164.727273 88.605445 
L 161.818182 80.056101 
L 158.909091 71.291284 
L 156 62.761632 
L 153.090909 54.785685 
L 150.181818 47.599258 
L 147.272727 41.380954 
L 144.363636 36.264788 
L 141.454545 32.345822 
L 138.545455 29.681531 
L 135.636364 28.289798 
L 132.727273 28.143241 
L 129.818182 29.158124 
L 126.909091 31.174102 
L 124 33.918607 
L 121.090909 36.952667 
L 118.181818 39.631259 
L 115.272727 41.227705 
L 112.363636 41.377471 
L 109.454545 40.415975 
L 106.545455 39.066901 
L 103.636364 37.986694 
L 100.727273 37.62583 
L 97.818182 38.265159 
L 94.909091 40.07095 
L 92 43.131824 
L 89.090909 47.480166 
L 86.181818 53.104291 
L 83.272727 59.955246 
L 80.363636 67.950019 
L 77.454545 76.971507 
L 74.545455 86.864346 
L 71.636364 97.42395 
L 68.727273 108.372968 
L 65.818182 119.314399 
L 62.909091 129.649918 
L 60 138.49933 
L 57.090909 144.850935 
L 54.181818 148.200585 
L 51.272727 148.959297 
L 48.363636 147.925086 
L 45.454545 145.741505 
L 42.545455 142.81132 
L 39.636364 139.37139 
L 36.727273 135.560349 
L 33.818182 131.459489 
L 30.909091 127.116809 
L 28 122.562413 
L 25.090909 117.819491 
L 22.181818 112.91283 
L 19.272727 107.875605 
L 16.363636 102.754663 
L 13.454545 97.614281 
L 10.545455 92.538255 
L 7.636364 87.630235 
L 4.727273 83.012211 
L 1.818182 78.821132 
L -1.090909 75.203684 
L -4 72.30918 
L -6.909091 70.280433 
L -9.818182 69.241982 
L -12.727273 69.28414 
L -15.636364 70.439081 
L -18.545455 72.640424 
L -21.454545 75.649213 
L -24.363636 78.928311 
L -27.272727 81.544319 
L -30.181818 82.530687 
L -33.090909 81.862996 
L -36 80.509779 
z
" style="fill:#4063d8;fill-opacity:0.3;"/>
   </g>
   <g id="line2d_2">
    <path clip-path="url(#p7dc5678ce0)" d="M -1 149.629065 
L 1.818182 156.927298 
L 4.727273 164.253352 
L 7.636364 171.188191 
L 10.545455 177.569317 
L 13.454545 183.259136 
L 16.363636 188.147544 
L 19.272727 192.153237 
L 22.181818 195.223768 
L 25.090909 197.33442 
L 28 198.486023 
L 30.909091 198.701901 
L 33.818182 198.02416 
L 36.727273 196.509571 
L 39.636364 194.225282 
L 42.545455 191.244642 
L 45.454545 187.643337 
L 48.363636 183.496068 
L 51.272727 178.873925 
L 54.181818 173.842555 
L 57.090909 168.461207 
L 60 162.782608 
L 62.909091 156.853645 
L 65.818182 150.71669 
L 68.727273 144.411434 
L 71.636364 137.977008 
L 74.545455 131.454174 
L 77.454545 124.88736 
L 80.363636 118.326334 
L 83.272727 111.827323 
L 86.181818 105.453449 
L 89.090909 99.274403 
L 92 93.365324 
L 94.909091 87.804954 
L 97.818182 82.673157 
L 100.727273 78.04798 
L 103.636364 74.002456 
L 106.545455 70.601377 
L 109.454545 67.898288 
L 112.363636 65.932908 
L 115.272727 64.729179 
L 118.181818 64.294091 
L 121.090909 64.617351 
L 124 65.671925 
L 126.909091 67.415378 
L 129.818182 69.791903 
L 132.727273 72.73485 
L 135.636364 76.169538 
L 138.545455 80.016093 
L 141.454545 84.192073 
L 144.363636 88.614651 
L 147.272727 93.202156 
L 150.181818 97.874831 
L 153.090909 102.554757 
L 156 107.164933 
L 158.909091 111.627601 
L 161.818182 115.861983 
L 164.727273 119.781639 
L 167.636364 123.291733 
L 170.545455 126.286506 
L 173.454545 128.647273 
L 176.363636 130.241246 
L 179.272727 130.921458 
L 182.181818 130.528007 
L 185.090909 128.890767 
L 188 125.833614 
L 190.909091 121.180155 
L 193.818182 114.76081 
L 196.727273 106.421019 
L 199.636364 96.030246 
L 202.545455 83.491391 
L 205.454545 68.750117 
L 208.363636 51.803611 
L 211.272727 32.708229 
L 214.181818 11.585534 
L 215.776487 -1 
" style="fill:none;stroke:#4063d8;stroke-width:6;"/>
   </g>
   <g id="PolyCollection_3">
    <path clip-path="url(#p7dc5678ce0)" d="M -36 92.614118 
L -36 132.961912 
L -33.090909 125.78745 
L -30.181818 121.455433 
L -27.272727 120.591209 
L -24.363636 123.137333 
L -21.454545 128.385906 
L -18.545455 135.59105 
L -15.636364 144.201015 
L -12.727273 153.804083 
L -9.818182 164.058959 
L -6.909091 174.658718 
L -4 185.316584 
L -1.090909 195.762359 
L 1.818182 205.743652 
L 4.727273 215.029066 
L 7.636364 223.411914 
L 10.545455 230.713731 
L 13.454545 236.787171 
L 16.363636 241.518095 
L 19.272727 244.826757 
L 22.181818 246.668104 
L 25.090909 247.03125 
L 28 245.938279 
L 30.909091 243.442583 
L 33.818182 239.62708 
L 36.727273 234.602834 
L 39.636364 228.508965 
L 42.545455 221.515468 
L 45.454545 213.831981 
L 48.363636 205.727932 
L 51.272727 197.570567 
L 54.181818 189.868787 
L 57.090909 183.217626 
L 60 177.959657 
L 62.909091 173.855975 
L 65.818182 170.343122 
L 68.727273 166.935476 
L 71.636364 163.32267 
L 74.545455 159.322816 
L 77.454545 154.834767 
L 80.363636 149.81153 
L 83.272727 144.24737 
L 86.181818 138.171674 
L 89.090909 131.645801 
L 92 124.761261 
L 94.909091 117.638706 
L 97.818182 110.428155 
L 100.727273 103.311824 
L 103.636364 96.512306 
L 106.545455 90.310424 
L 109.454545 85.074734 
L 112.363636 81.280056 
L 115.272727 79.4176 
L 118.181818 79.708361 
L 121.090909 81.907779 
L 124 85.51775 
L 126.909091 90.066176 
L 129.818182 95.188014 
L 132.727273 100.604606 
L 135.636364 106.094376 
L 138.545455 111.475194 
L 141.454545 116.595979 
L 144.363636 121.333316 
L 147.272727 125.590407 
L 150.181818 129.297064 
L 153.090909 132.410427 
L 156 134.916996 
L 158.909091 136.8378 
L 161.818182 138.24066 
L 164.727273 139.26676 
L 167.636364 140.178708 
L 170.545455 141.404621 
L 173.454545 143.427255 
L 176.363636 146.372017 
L 179.272727 149.778651 
L 182.181818 152.950697 
L 185.090909 155.282489 
L 188 156.308038 
L 190.909091 155.660072 
L 193.818182 153.037363 
L 196.727273 148.190173 
L 199.636364 140.917017 
L 202.545455 131.067256 
L 205.454545 118.546338 
L 208.363636 103.32186 
L 211.272727 85.429326 
L 214.181818 64.97681 
L 217.090909 42.147936 
L 220 17.20276 
L 222.909091 -9.523787 
L 225.818182 -37.626047 
L 228.727273 -66.634415 
L 231.636364 -96.024607 
L 234.545455 -125.229054 
L 237.454545 -153.64976 
L 240.363636 -180.671547 
L 243.272727 -205.673807 
L 246.181818 -228.037378 
L 249.090909 -247.139988 
L 252 -262.328334 
L 252 -302.527344 
L 252 -302.527344 
L 249.090909 -295.154499 
L 246.181818 -284.359269 
L 243.272727 -270.281704 
L 240.363636 -253.223619 
L 237.454545 -233.588963 
L 234.545455 -211.844824 
L 231.636364 -188.492703 
L 228.727273 -164.045101 
L 225.818182 -139.005505 
L 222.909091 -113.851266 
L 220 -89.019395 
L 217.090909 -64.895452 
L 214.181818 -41.805741 
L 211.272727 -20.012867 
L 208.363636 0.285363 
L 205.454545 18.953897 
L 202.545455 35.915525 
L 199.636364 51.143475 
L 196.727273 64.651864 
L 193.818182 76.484257 
L 190.909091 86.700238 
L 188 95.35919 
L 185.090909 102.499045 
L 182.181818 108.105318 
L 179.272727 112.064264 
L 176.363636 114.110474 
L 173.454545 113.867291 
L 170.545455 111.168391 
L 167.636364 106.404757 
L 164.727273 100.296518 
L 161.818182 93.483307 
L 158.909091 86.417403 
L 156 79.41287 
L 153.090909 72.699087 
L 150.181818 66.452598 
L 147.272727 60.813904 
L 144.363636 55.895986 
L 141.454545 51.788166 
L 138.545455 48.556991 
L 135.636364 46.2447 
L 132.727273 44.865095 
L 129.818182 44.395791 
L 126.909091 44.76458 
L 124 45.826101 
L 121.090909 47.326924 
L 118.181818 48.879821 
L 115.272727 50.040758 
L 112.363636 50.58576 
L 109.454545 50.721843 
L 106.545455 50.892329 
L 103.636364 51.492605 
L 100.727273 52.784137 
L 97.818182 54.918158 
L 94.909091 57.971201 
L 92 61.969387 
L 89.090909 66.903005 
L 86.181818 72.735225 
L 83.272727 79.407275 
L 80.363636 86.841137 
L 77.454545 94.939952 
L 74.545455 103.585532 
L 71.636364 112.631347 
L 68.727273 121.887393 
L 65.818182 131.090258 
L 62.909091 139.851315 
L 60 147.60556 
L 57.090909 153.704787 
L 54.181818 157.816324 
L 51.272727 160.177282 
L 48.363636 161.264204 
L 45.454545 161.454692 
L 42.545455 160.973816 
L 39.636364 159.9416 
L 36.727273 158.416307 
L 33.818182 156.421241 
L 30.909091 153.961219 
L 28 151.033767 
L 25.090909 147.637589 
L 22.181818 143.779432 
L 19.272727 139.479717 
L 16.363636 134.776994 
L 13.454545 129.731102 
L 10.545455 124.424903 
L 7.636364 118.964469 
L 4.727273 113.477639 
L 1.818182 108.110945 
L -1.090909 103.024916 
L -4 98.387812 
L -6.909091 94.36773 
L -9.818182 91.122823 
L -12.727273 88.788742 
L -15.636364 87.461066 
L -18.545455 87.167491 
L -21.454545 87.819219 
L -24.363636 89.130393 
L -27.272727 90.55514 
L -30.181818 91.513321 
L -33.090909 91.999409 
L -36 92.614118 
z
" style="fill:#4063d8;fill-opacity:0.4;"/>
   </g>
   <g id="line2d_3">
    <path clip-path="url(#p7dc5678ce0)" d="M -1 149.629065 
L 1.818182 156.927298 
L 4.727273 164.253352 
L 7.636364 171.188191 
L 10.545455 177.569317 
L 13.454545 183.259136 
L 16.363636 188.147544 
L 19.272727 192.153237 
L 22.181818 195.223768 
L 25.090909 197.33442 
L 28 198.486023 
L 30.909091 198.701901 
L 33.818182 198.02416 
L 36.727273 196.509571 
L 39.636364 194.225282 
L 42.545455 191.244642 
L 45.454545 187.643337 
L 48.363636 183.496068 
L 51.272727 178.873925 
L 54.181818 173.842555 
L 57.090909 168.461207 
L 60 162.782608 
L 62.909091 156.853645 
L 65.818182 150.71669 
L 68.727273 144.411434 
L 71.636364 137.977008 
L 74.545455 131.454174 
L 77.454545 124.88736 
L 80.363636 118.326334 
L 83.272727 111.827323 
L 86.181818 105.453449 
L 89.090909 99.274403 
L 92 93.365324 
L 94.909091 87.804954 
L 97.818182 82.673157 
L 100.727273 78.04798 
L 103.636364 74.002456 
L 106.545455 70.601377 
L 109.454545 67.898288 
L 112.363636 65.932908 
L 115.272727 64.729179 
L 118.181818 64.294091 
L 121.090909 64.617351 
L 124 65.671925 
L 126.909091 67.415378 
L 129.818182 69.791903 
L 132.727273 72.73485 
L 135.636364 76.169538 
L 138.545455 80.016093 
L 141.454545 84.192073 
L 144.363636 88.614651 
L 147.272727 93.202156 
L 150.181818 97.874831 
L 153.090909 102.554757 
L 156 107.164933 
L 158.909091 111.627601 
L 161.818182 115.861983 
L 164.727273 119.781639 
L 167.636364 123.291733 
L 170.545455 126.286506 
L 173.454545 128.647273 
L 176.363636 130.241246 
L 179.272727 130.921458 
L 182.181818 130.528007 
L 185.090909 128.890767 
L 188 125.833614 
L 190.909091 121.180155 
L 193.818182 114.76081 
L 196.727273 106.421019 
L 199.636364 96.030246 
L 202.545455 83.491391 
L 205.454545 68.750117 
L 208.363636 51.803611 
L 211.272727 32.708229 
L 214.181818 11.585534 
L 215.776487 -1 
" style="fill:none;stroke:#4063d8;stroke-width:6;"/>
   </g>
   <g id="PathCollection_1">
    <defs>
     <path d="M 0 2 
C 0.530406 2 1.03916 1.789267 1.414214 1.414214 
C 1.789267 1.03916 2 0.530406 2 0 
C 2 -0.530406 1.789267 -1.03916 1.414214 -1.414214 
C 1.03916 -1.789267 0.530406 -2 0 -2 
C -0.530406 -2 -1.03916 -1.789267 -1.414214 -1.414214 
C -1.789267 -1.03916 -2 -0.530406 -2 0 
C -2 0.530406 -1.789267 1.03916 -1.414214 1.414214 
C -1.03916 1.789267 -0.530406 2 0 2 
z
" id="mba46ea300e" style="stroke:#000000;"/>
    </defs>
    <g clip-path="url(#p7dc5678ce0)">
     <use style="stroke:#000000;" x="57.6" xlink:href="#mba46ea300e" y="162"/>
     <use style="stroke:#000000;" x="115.2" xlink:href="#mba46ea300e" y="54"/>
     <use style="stroke:#000000;" x="172.8" xlink:href="#mba46ea300e" y="121.5"/>
    </g>
   </g>
   <g id="PathCollection_2">
    <defs>
     <path d="M 0 22.5 
C 5.96707 22.5 11.690547 20.129258 15.909903 15.909903 
C 20.129258 11.690547 22.5 5.96707 22.5 0 
C 22.5 -5.96707 20.129258 -11.690547 15.909903 -15.909903 
C 11.690547 -20.129258 5.96707 -22.5 0 -22.5 
C -5.96707 -22.5 -11.690547 -20.129258 -15.909903 -15.909903 
C -20.129258 -11.690547 -22.5 -5.96707 -22.5 0 
C -22.5 5.96707 -20.129258 11.690547 -15.909903 15.909903 
C -11.690547 20.129258 -5.96707 22.5 0 22.5 
z
" id="C0_0_00377c3035"/>
    </defs>
    <g clip-path="url(#p7dc5678ce0)">
     <use style="fill:#cb3c33;" x="57.6" xlink:href="#C0_0_00377c3035" y="162"/>
    </g>
    <g clip-path="url(#p7dc5678ce0)">
     <use style="fill:#389826;" x="115.2" xlink:href="#C0_0_00377c3035" y="54"/>
    </g>
    <g clip-path="url(#p7dc5678ce0)">
     <use style="fill:#9558b2;" x="172.8" xlink:href="#C0_0_00377c3035" y="121.5"/>
    </g>
   </g>
  </g>
 </g>
 <defs>
  <clipPath id="p7dc5678ce0">
   <rect height="216" width="216" x="0" y="0"/>
  </clipPath>
 </defs>
</svg>
